HIERARCHY
ROOT Root
{
  OFFSET 0.0 0.0 0.0
  CHANNELS 6 Xposition Yposition Zposition Zrotation Yrotation Xrotation
  JOINT Hips
  {
    OFFSET 0.0 100.0 0.0
    CHANNELS 6 Xposition Yposition Zposition Zrotation Yrotation Xrotation
    JOINT Spine1
    {
      OFFSET 5.003913 -0.037094 -0.013727
      CHANNELS 3 Zrotation Yrotation Xrotation
      JOINT Spine2
      {
        OFFSET 7.125363 -1e-06 0.0
        CHANNELS 3 Zrotation Yrotation Xrotation
        JOINT Chest
        {
          OFFSET 7.594027 1e-06 0.0
          CHANNELS 3 Zrotation Yrotation Xrotation
          JOINT Neck1
          {
            OFFSET 26.313086 -0.460272 -0.181672
            CHANNELS 3 Zrotation Yrotation Xrotation
            JOINT Neck2
            {
              OFFSET 8.045911 0.0 0.0
              CHANNELS 3 Zrotation Yrotation Xrotation
              JOINT Head
              {
                OFFSET 6.432774 0.0 0.0
                CHANNELS 3 Zrotation Yrotation Xrotation
                JOINT HeadEnd
                {
                  OFFSET 16.169773 0.06451 0.00362
                  CHANNELS 3 Zrotation Yrotation Xrotation
                }
                JOINT Jaw
                {
                  OFFSET 0.108741 3.12938 0.002639
                  CHANNELS 3 Zrotation Yrotation Xrotation
                }
                JOINT LeftEye
                {
                  OFFSET 4.45173 8.166359 3.206392
                  CHANNELS 3 Zrotation Yrotation Xrotation
                }
                JOINT RightEye
                {
                  OFFSET 4.436895 8.135758 -3.222429
                  CHANNELS 3 Zrotation Yrotation Xrotation
                }
              }
            }
          }
          JOINT LeftShoulder
          {
            OFFSET 23.218927 5.195579 1.621656
            CHANNELS 3 Zrotation Yrotation Xrotation
            JOINT LeftArm
            {
              OFFSET 15.902118 2e-06 -2e-06
              CHANNELS 3 Zrotation Yrotation Xrotation
              JOINT LeftForeArm
              {
                OFFSET 28.739307 0.0 -1e-06
                CHANNELS 3 Zrotation Yrotation Xrotation
                JOINT LeftHand
                {
                  OFFSET 27.093981 -4e-06 0.0
                  CHANNELS 3 Zrotation Yrotation Xrotation
                  JOINT LeftHandThumb1
                  {
                    OFFSET 2.276781 3.380274 0.83384
                    CHANNELS 3 Zrotation Yrotation Xrotation
                    JOINT LeftHandThumb2
                    {
                      OFFSET 4.705309 -1e-06 -1e-06
                      CHANNELS 3 Zrotation Yrotation Xrotation
                      JOINT LeftHandThumb3
                      {
                        OFFSET 2.798515 0.0 3e-06
                        CHANNELS 3 Zrotation Yrotation Xrotation
                        JOINT LeftHandThumbEnd
                        {
                          OFFSET 3.180793 4e-06 -4e-06
                          CHANNELS 3 Zrotation Yrotation Xrotation
                        }
                      }
                    }
                  }
                  JOINT LeftHandIndex1
                  {
                    OFFSET 3.247786 2.352677 0.137192
                    CHANNELS 3 Zrotation Yrotation Xrotation
                    JOINT LeftHandIndex2
                    {
                      OFFSET 6.367095 1e-06 0.0
                      CHANNELS 3 Zrotation Yrotation Xrotation
                      JOINT LeftHandIndex3
                      {
                        OFFSET 3.662364 0.0 0.0
                        CHANNELS 3 Zrotation Yrotation Xrotation
                        JOINT LeftHandIndex4
                        {
                          OFFSET 2.329242 4e-06 -4e-06
                          CHANNELS 3 Zrotation Yrotation Xrotation
                          JOINT LeftHandIndexEnd
                          {
                            OFFSET 2.767823 1e-06 0.0
                            CHANNELS 3 Zrotation Yrotation Xrotation
                          }
                        }
                      }
                    }
                  }
                  JOINT LeftHandMiddle1
                  {
                    OFFSET 3.163612 0.945023 -0.406112
                    CHANNELS 3 Zrotation Yrotation Xrotation
                    JOINT LeftHandMiddle2
                    {
                      OFFSET 6.276789 3e-06 0.0
                      CHANNELS 3 Zrotation Yrotation Xrotation
                      JOINT LeftHandMiddle3
                      {
                        OFFSET 4.35652 -1e-06 4e-06
                        CHANNELS 3 Zrotation Yrotation Xrotation
                        JOINT LeftHandMiddle4
                        {
                          OFFSET 2.996877 0.0 8e-06
                          CHANNELS 3 Zrotation Yrotation Xrotation
                          JOINT LeftHandMiddleEnd
                          {
                            OFFSET 2.323256 3e-06 -4e-06
                            CHANNELS 3 Zrotation Yrotation Xrotation
                          }
                        }
                      }
                    }
                  }
                  JOINT LeftHandRing1
                  {
                    OFFSET 2.882606 -0.309162 0.107445
                    CHANNELS 3 Zrotation Yrotation Xrotation
                    JOINT LeftHandRing2
                    {
                      OFFSET 6.033198 0.0 4e-06
                      CHANNELS 3 Zrotation Yrotation Xrotation
                      JOINT LeftHandRing3
                      {
                        OFFSET 4.350578 3e-06 0.0
                        CHANNELS 3 Zrotation Yrotation Xrotation
                        JOINT LeftHandRing4
                        {
                          OFFSET 2.651321 2e-06 -7e-06
                          CHANNELS 3 Zrotation Yrotation Xrotation
                          JOINT LeftHandRingEnd
                          {
                            OFFSET 1.937663 1e-06 -4e-06
                            CHANNELS 3 Zrotation Yrotation Xrotation
                          }
                        }
                      }
                    }
                  }
                  JOINT LeftHandPinky1
                  {
                    OFFSET 2.865315 -1.525436 0.575687
                    CHANNELS 3 Zrotation Yrotation Xrotation
                    JOINT LeftHandPinky2
                    {
                      OFFSET 5.54936 1e-06 -8e-06
                      CHANNELS 3 Zrotation Yrotation Xrotation
                      JOINT LeftHandPinky3
                      {
                        OFFSET 3.070974 0.0 -4e-06
                        CHANNELS 3 Zrotation Yrotation Xrotation
                        JOINT LeftHandPinky4
                        {
                          OFFSET 1.549672 1e-06 0.0
                          CHANNELS 3 Zrotation Yrotation Xrotation
                          JOINT LeftHandPinkyEnd
                          {
                            OFFSET 1.952123 0.0 0.0
                            CHANNELS 3 Zrotation Yrotation Xrotation
                          }
                        }
                      }
                    }
                  }
                }
              }
            }
          }
          JOINT RightShoulder
          {
            OFFSET 23.161716 5.296122 -1.380114
            CHANNELS 3 Zrotation Yrotation Xrotation
            JOINT RightArm
            {
              OFFSET -16.027195 -2e-06 1.1e-05
              CHANNELS 3 Zrotation Yrotation Xrotation
              JOINT RightForeArm
              {
                OFFSET -28.736639 4e-06 2e-06
                CHANNELS 3 Zrotation Yrotation Xrotation
                JOINT RightHand
                {
                  OFFSET -27.133619 6e-06 0.0
                  CHANNELS 3 Zrotation Yrotation Xrotation
                  JOINT RightHandThumb1
                  {
                    OFFSET -2.274328 -3.351035 -0.83067
                    CHANNELS 3 Zrotation Yrotation Xrotation
                    JOINT RightHandThumb2
                    {
                      OFFSET -4.703594 -3e-06 2e-06
                      CHANNELS 3 Zrotation Yrotation Xrotation
                      JOINT RightHandThumb3
                      {
                        OFFSET -2.794935 -4e-06 -3e-06
                        CHANNELS 3 Zrotation Yrotation Xrotation
                        JOINT RightHandThumbEnd
                        {
                          OFFSET -3.183852 4e-06 1e-06
                          CHANNELS 3 Zrotation Yrotation Xrotation
                        }
                      }
                    }
                  }
                  JOINT RightHandIndex1
                  {
                    OFFSET -3.253496 -2.33755 -0.127667
                    CHANNELS 3 Zrotation Yrotation Xrotation
                    JOINT RightHandIndex2
                    {
                      OFFSET -6.344434 0.0 0.0
                      CHANNELS 3 Zrotation Yrotation Xrotation
                      JOINT RightHandIndex3
                      {
                        OFFSET -3.654871 0.0 -8e-06
                        CHANNELS 3 Zrotation Yrotation Xrotation
                        JOINT RightHandIndex4
                        {
                          OFFSET -2.327586 -1e-06 0.0
                          CHANNELS 3 Zrotation Yrotation Xrotation
                          JOINT RightHandIndexEnd
                          {
                            OFFSET -2.770001 3e-06 8e-06
                            CHANNELS 3 Zrotation Yrotation Xrotation
                          }
                        }
                      }
                    }
                  }
                  JOINT RightHandMiddle1
                  {
                    OFFSET -3.168223 -0.944764 0.411762
                    CHANNELS 3 Zrotation Yrotation Xrotation
                    JOINT RightHandMiddle2
                    {
                      OFFSET -6.266691 -1e-06 -4e-06
                      CHANNELS 3 Zrotation Yrotation Xrotation
                      JOINT RightHandMiddle3
                      {
                        OFFSET -4.348901 0.0 0.0
                        CHANNELS 3 Zrotation Yrotation Xrotation
                        JOINT RightHandMiddle4
                        {
                          OFFSET -3.00024 2e-06 -4e-06
                          CHANNELS 3 Zrotation Yrotation Xrotation
                          JOINT RightHandMiddleEnd
                          {
                            OFFSET -2.321477 -4e-06 -4e-06
                            CHANNELS 3 Zrotation Yrotation Xrotation
                          }
                        }
                      }
                    }
                  }
                  JOINT RightHandRing1
                  {
                    OFFSET -2.885654 0.293261 -0.119232
                    CHANNELS 3 Zrotation Yrotation Xrotation
                    JOINT RightHandRing2
                    {
                      OFFSET -6.032835 -1e-06 -4e-06
                      CHANNELS 3 Zrotation Yrotation Xrotation
                      JOINT RightHandRing3
                      {
                        OFFSET -4.33881 0.0 -4e-06
                        CHANNELS 3 Zrotation Yrotation Xrotation
                        JOINT RightHandRing4
                        {
                          OFFSET -2.654903 -4e-06 -4e-06
                          CHANNELS 3 Zrotation Yrotation Xrotation
                          JOINT RightHandRingEnd
                          {
                            OFFSET -1.935122 0.0 4e-06
                            CHANNELS 3 Zrotation Yrotation Xrotation
                          }
                        }
                      }
                    }
                  }
                  JOINT RightHandPinky1
                  {
                    OFFSET -2.866241 1.503904 -0.60527
                    CHANNELS 3 Zrotation Yrotation Xrotation
                    JOINT RightHandPinky2
                    {
                      OFFSET -5.553177 -2e-06 0.0
                      CHANNELS 3 Zrotation Yrotation Xrotation
                      JOINT RightHandPinky3
                      {
                        OFFSET -3.062664 -1e-06 -4e-06
                        CHANNELS 3 Zrotation Yrotation Xrotation
                        JOINT RightHandPinky4
                        {
                          OFFSET -1.546529 2e-06 4e-06
                          CHANNELS 3 Zrotation Yrotation Xrotation
                          JOINT RightHandPinkyEnd
                          {
                            OFFSET -1.952341 0.0 -4e-06
                            CHANNELS 3 Zrotation Yrotation Xrotation
                          }
                        }
                      }
                    }
                  }
                }
              }
            }
          }
        }
      }
    }
    JOINT LeftLeg
    {
      OFFSET -8.443107 2.567604 10.043214
      CHANNELS 3 Zrotation Yrotation Xrotation
      JOINT LeftShin
      {
        OFFSET 43.229198 1e-06 -1e-06
        CHANNELS 3 Zrotation Yrotation Xrotation
        JOINT LeftFoot
        {
          OFFSET 42.298611 1e-06 1e-06
          CHANNELS 3 Zrotation Yrotation Xrotation
          JOINT LeftToeBase
          {
            OFFSET 14.165858 1e-06 0.0
            CHANNELS 3 Zrotation Yrotation Xrotation
            JOINT LeftToeEnd
            {
              OFFSET 6.7141 -0.234461 0.0
              CHANNELS 3 Zrotation Yrotation Xrotation
            }
          }
        }
      }
    }
    JOINT RightLeg
    {
      OFFSET -8.303923 2.592729 -10.047278
      CHANNELS 3 Zrotation Yrotation Xrotation
      JOINT RightShin
      {
        OFFSET -43.369682 0.0 1e-06
        CHANNELS 3 Zrotation Yrotation Xrotation
        JOINT RightFoot
        {
          OFFSET -42.260784 4e-06 2e-06
          CHANNELS 3 Zrotation Yrotation Xrotation
          JOINT RightToeBase
          {
            OFFSET -14.222245 -2e-06 -1e-06
            CHANNELS 3 Zrotation Yrotation Xrotation
            JOINT RightToeEnd
            {
              OFFSET -6.660062 0.232574 -2e-06
              CHANNELS 3 Zrotation Yrotation Xrotation
            }
          }
        }
      }
    }
  }
}
MOTION
Frames: 4
Frame Time: 0.03333333333333333
0.0 0.0 0.0 0.0 -0.0 0.0 0.183813 49.18364 6.238613 95.303703 -55.277073 87.648186 15.625544 0.738191 -0.308359 -4.254405 -0.17024 -0.49811 19.864662 0.077064 -3.134849 27.946596 -4.505737 2.28467 -2.706623 0.335606 -1.126061 -18.756073 -1.399506 -2.410529 6e-06 0.0 -0.0 -0.262118 0.103993 0.011157 -0.23752 0.302672 0.022607 -0.240673 -0.088718 0.001797 -23.132355 -71.908257 25.331903 88.567825 -1.799281 -25.633205 5.179358 -1.28723 -0.051004 45.139984 85.500893 52.669178 17.636633 -26.322733 52.411201 -19.46666 -14.3956 29.410389 1e-06 -8.774822 -3e-06 15.46696 -17.502161 6.393248 -0.609777 -1.795654 -3.889328 -4.807091 -11.046811 -2.93785 4e-06 -20.976019 -0.0 -5.019972 -25.03356 -4.031882 5e-06 -1e-06 0.0 -10.634537 -5.686973 -3.565588 10.573275 -17.922951 -3.113901 2e-06 -13.821211 1e-06 -0.501779 -31.181501 -4.027016 -10.617039 -58.52372 6.656736 -13.982718 -7.150199 -2.875043 13.772733 -8.401493 -3.218241 0.347732 -34.211555 0.771655 -0.963029 -17.73337 2.62102 -0.0 0.0 -0.0 -17.346422 -20.095219 -4.201784 21.757561 -1.638376 3.866429 1e-06 -6.338824 1e-06 -1.69759 -22.591743 -6.194007 -0.0 -6e-06 -2e-06 161.271103 -68.630928 21.641476 87.383186 -6.281147 -36.039322 5.558754 -0.42645 -0.022995 70.936058 71.538544 73.604378 22.182119 -20.375898 49.933327 -16.701817 -16.74353 28.476534 -2e-06 -12.690603 -1e-06 16.374542 -16.825983 2.451937 -0.105919 -1.513857 -4.275882 -5.039042 -5.612873 -2.953557 4e-06 -11.020527 -2e-06 -6.1113 -15.895338 -3.840471 -1e-06 -2e-06 -0.0 -10.283373 -5.680288 -4.341839 11.028297 -11.302411 -2.372633 -1.384269 -14.238583 -6.320123 -0.625438 -26.924196 -3.827602 -4.362879 -48.879147 -3.953736 -13.708527 -7.363477 -3.72094 18.141155 -14.052741 -3.242676 6e-06 -18.787275 -2e-06 -0.429712 -8.456047 2.555504 -0.0 -1e-06 -0.0 -15.923536 -20.09449 -5.473586 30.419222 -7.190827 1.735926 3e-06 -8.162926 -1e-06 -1.861902 -22.861475 -6.167944 -0.0 -2e-06 -1e-06 127.687721 -0.997632 5.662207 103.527252 -0.092946 0.280904 -65.69191 22.443052 -9.987645 -12.885859 1.296345 2.025685 -1.0 0.0 0.0 -55.11911 -8.04649 0.087122 108.951515 -0.964795 -0.106692 -66.644302 0.015669 -5.727262 -12.944648 0.682999 1.827437 -1.000001 -0.0 0.0 
0.0 0.0 0.0 0.0 -0.0 0.0 0.430577 49.265076 6.306443 95.05085 -55.155979 87.777336 15.613584 0.869442 -0.266943 -4.335966 -0.087525 -0.417268 20.030901 0.099854 -2.96264 28.016249 -4.674453 2.100441 -2.709124 0.360078 -1.126118 -18.636938 -1.42482 -2.486321 6e-06 -0.0 0.0 -0.266021 0.053522 0.006143 -0.213155 0.249268 0.014464 -0.221831 -0.132846 -0.003019 -22.695761 -72.108917 25.167208 88.76265 -1.651405 -26.402567 4.940945 -1.197752 -0.04431 50.823925 84.539116 57.715797 17.636625 -26.322731 52.41119 -19.466661 -14.395596 29.410393 -1e-06 -8.774822 -2e-06 15.490883 -17.624998 6.333523 -0.609776 -1.795654 -3.889328 -4.80709 -11.04681 -2.93785 4e-06 -20.976019 -1e-06 -5.019971 -25.033556 -4.03188 5e-06 -3e-06 0.0 -10.634533 -5.68697 -3.565586 10.573272 -17.922947 -3.113901 3e-06 -13.821211 1e-06 -0.501778 -31.181501 -4.027015 -10.594369 -58.70665 6.619855 -13.982712 -7.150198 -2.875042 13.772728 -8.401493 -3.218242 0.347733 -34.211544 0.771654 -0.963029 -17.733366 2.621019 0.0 -0.0 -0.0 -17.346416 -20.095217 -4.20178 21.757559 -1.638375 3.866428 1e-06 -6.338823 1e-06 -1.69759 -22.591747 -6.194006 0.0 -4e-06 -2e-06 161.464798 -68.530777 21.692337 87.309677 -6.230174 -35.955193 5.259666 -0.307218 -0.015269 70.716309 71.319946 73.270233 22.182114 -20.375898 49.933334 -16.701817 -16.743532 28.476538 -2e-06 -12.690602 -1e-06 16.190487 -16.744684 2.537567 -0.105919 -1.513857 -4.275883 -5.039041 -5.612873 -2.953557 4e-06 -11.020525 -2e-06 -6.111297 -15.895334 -3.840472 -0.0 -1e-06 0.0 -10.283371 -5.680288 -4.34184 11.028296 -11.302408 -2.372634 -1.384268 -14.238585 -6.320122 -0.625437 -26.924196 -3.827603 -4.40132 -48.954906 -3.842545 -13.708526 -7.363479 -3.72094 18.141153 -14.05274 -3.242677 6e-06 -18.78727 -3e-06 -0.429712 -8.456043 2.555504 0.0 -2e-06 -0.0 -15.923538 -20.094486 -5.473586 30.419218 -7.190826 1.735924 3e-06 -8.162925 -1e-06 -1.861902 -22.861475 -6.167944 -0.0 -3e-06 -1e-06 127.893303 -0.805553 5.637428 103.445549 -0.131963 0.266864 -65.773544 22.210476 -9.865806 -12.642243 1.321454 1.993372 -1.0 -1e-06 -1e-06 -54.917103 -8.150086 0.076035 108.711334 -1.016916 -0.119118 -66.450188 0.127444 -5.677016 -12.69531 0.660342 1.841539 -1.000003 -0.0 0.0 
0.0 0.0 0.0 0.0 -0.0 0.0 0.628615 49.283974 6.297761 94.951546 -55.074688 87.791748 15.56041 0.924232 -0.22523 -4.391885 0.012645 -0.319898 20.177273 0.092265 -2.841765 28.097569 -4.763028 1.960814 -2.706466 0.332288 -1.1307 -18.652487 -1.515362 -2.542777 6e-06 -0.0 0.0 -0.258753 0.02639 0.005054 -0.227654 0.213551 0.005154 -0.229382 -0.149675 6.1e-05 -22.043457 -72.091774 24.758909 88.857979 -1.491585 -26.847382 4.883688 -1.117112 -0.039399 51.038692 83.948158 57.437862 17.636625 -26.322729 52.411194 -19.46666 -14.395598 29.410385 -1e-06 -8.774821 -2e-06 15.531432 -17.688766 6.252337 -0.609776 -1.795654 -3.889327 -4.80709 -11.046807 -2.93785 5e-06 -20.976013 -1e-06 -5.01997 -25.033546 -4.031882 5e-06 -3e-06 0.0 -10.634535 -5.68697 -3.565586 10.573273 -17.922945 -3.113901 2e-06 -13.821205 1e-06 -0.501778 -31.181498 -4.027016 -10.508929 -58.768581 6.544408 -13.982714 -7.150197 -2.875041 13.772728 -8.40149 -3.218241 0.347733 -34.211536 0.771654 -0.963028 -17.733362 2.621019 0.0 -2e-06 -0.0 -17.346418 -20.095213 -4.201782 21.757557 -1.638374 3.866428 1e-06 -6.338823 1e-06 -1.69759 -22.59174 -6.194007 -0.0 -6e-06 -2e-06 161.829865 -68.450226 21.577478 87.062233 -6.173884 -35.855381 5.143328 -0.242545 -0.013997 71.211319 71.201393 73.941704 22.182117 -20.375891 49.933319 -16.701807 -16.743532 28.476528 -1e-06 -12.690601 -1e-06 16.156549 -16.634689 2.568524 -0.10592 -1.513855 -4.275881 -5.039042 -5.612869 -2.953556 3e-06 -11.020519 -2e-06 -6.111297 -15.895328 -3.840472 0.0 -2e-06 1e-06 -10.283371 -5.680286 -4.341839 11.028296 -11.302402 -2.372633 -1.384269 -14.238575 -6.320121 -0.625438 -26.924183 -3.827601 -4.390936 -48.98151 -3.790171 -13.708527 -7.363474 -3.720939 18.14115 -14.052734 -3.242673 5e-06 -18.78726 -1e-06 -0.429712 -8.456039 2.555504 0.0 -2e-06 0.0 -15.923536 -20.094477 -5.473586 30.41921 -7.190824 1.735927 2e-06 -8.162921 0.0 -1.861904 -22.861465 -6.16794 -1e-06 -1e-06 -1e-06 127.985245 -0.622035 5.586836 103.505989 -0.143035 0.264984 -65.955978 21.982338 -9.795972 -12.648403 1.324126 1.975719 -0.999999 -0.0 -1e-06 -54.850159 -8.241134 0.18214 108.674492 -1.038749 -0.102988 -66.430305 0.400028 -5.689948 -12.499058 0.646615 1.853287 -1.000001 -0.0 -0.0 
0.0 0.0 0.0 0.0 -0.0 0.0 0.761126 49.266449 6.240744 94.886154 -55.110546 87.862312 15.489412 0.956345 -0.19416 -4.43422 0.063588 -0.258533 20.20759 0.146534 -2.801827 28.149099 -4.817572 1.873278 -2.69709 0.314658 -1.144968 -18.704571 -1.573162 -2.533247 6e-06 0.0 -0.0 -0.255219 0.011146 0.004064 -0.273512 0.195074 -0.00855 -0.262615 -0.16231 0.009125 -21.593849 -72.009155 24.442577 88.906548 -1.396073 -27.128105 4.90187 -1.084321 -0.039232 50.554996 83.616318 56.966747 17.636637 -26.322729 52.411179 -19.466658 -14.395594 29.410378 -1e-06 -8.774817 -2e-06 15.511894 -17.672825 6.227333 -0.609776 -1.795653 -3.889327 -4.807089 -11.046811 -2.93785 4e-06 -20.976021 1e-06 -5.019971 -25.03356 -4.031879 6e-06 -1e-06 0.0 -10.634534 -5.68697 -3.565587 10.573271 -17.922951 -3.113899 2e-06 -13.821209 1e-06 -0.501779 -31.181505 -4.027014 -10.385059 -58.772568 6.41084 -13.982714 -7.150198 -2.875042 13.772729 -8.401493 -3.218239 0.347732 -34.211555 0.771657 -0.963029 -17.73337 2.62102 0.0 -2e-06 0.0 -17.346416 -20.095217 -4.20178 21.757555 -1.638375 3.866429 1e-06 -6.338824 1e-06 -1.69759 -22.591745 -6.194005 -0.0 -7e-06 -2e-06 161.973587 -68.382561 21.532692 86.83197 -6.272847 -35.711529 5.253882 -0.219019 -0.016021 71.844269 71.176308 74.935715 22.182119 -20.375895 49.933311 -16.701815 -16.743525 28.47653 -1e-06 -12.690601 -2e-06 16.192497 -16.562641 2.602536 -0.10592 -1.513856 -4.275882 -5.039041 -5.612875 -2.953556 3e-06 -11.020528 -2e-06 -6.111298 -15.895338 -3.840471 -0.0 -1e-06 -1e-06 -10.283371 -5.680291 -4.341839 11.028296 -11.302406 -2.372632 -1.38427 -14.238584 -6.320121 -0.625439 -26.924196 -3.827601 -4.373516 -49.092007 -3.695522 -13.708526 -7.363478 -3.72094 18.14115 -14.052746 -3.242675 6e-06 -18.787273 -3e-06 -0.429712 -8.456044 2.555503 0.0 -2e-06 0.0 -15.923538 -20.094494 -5.473584 30.41921 -7.190826 1.735927 2e-06 -8.162927 -1e-06 -1.861901 -22.861473 -6.167944 -0.0 -2e-06 -1e-06 127.885735 -0.453404 5.620655 103.688271 -0.130262 0.272393 -66.385071 21.830538 -9.801526 -12.874247 1.317816 1.969101 -0.999999 -0.0 -0.0 -54.941986 -8.365587 0.277856 108.769325 -0.998298 -0.080376 -66.596992 0.577995 -5.827561 -12.5467 0.646933 1.861622 -1.0 -0.0 0.0 
